<svg id="Layer_1" data-name="Layer 1" xmlns="http://www.w3.org/2000/svg" xmlns:xlink="http://www.w3.org/1999/xlink" viewBox="0 0 800 250"><defs><style>.cls-1{fill:#363942;}.cls-2{fill:#00d888;}.cls-3{fill:url(#Degradado_sin_nombre_2);}.cls-4{fill:url(#Degradado_sin_nombre_2-2);}.cls-5{fill:url(#Degradado_sin_nombre_2-3);}.cls-6{fill:url(#Degradado_sin_nombre_2-4);}</style><linearGradient id="Degradado_sin_nombre_2" x1="108.59" y1="3.93" x2="205.71" y2="204.84" gradientUnits="userSpaceOnUse"><stop offset="0" stop-color="#00ee76"/><stop offset="1" stop-color="#00998e"/></linearGradient><linearGradient id="Degradado_sin_nombre_2-2" x1="67.18" y1="24.22" x2="166.49" y2="229.65" xlink:href="#Degradado_sin_nombre_2"/><linearGradient id="Degradado_sin_nombre_2-3" x1="101.84" y1="0.29" x2="204.8" y2="213.29" xlink:href="#Degradado_sin_nombre_2"/><linearGradient id="Degradado_sin_nombre_2-4" x1="38.03" y1="39.03" x2="137.47" y2="244.72" xlink:href="#Degradado_sin_nombre_2"/></defs><title>H color black</title><path class="cls-1" d="M262.72,107.48a36.83,36.83,0,0,1,27.48,11.74q11.36,11.74,11.36,28.63T290.2,176.48a36.83,36.83,0,0,1-27.48,11.74q-19,0-29-15.2v37.62a6.28,6.28,0,0,1-6.28,6.28h-.79a6.28,6.28,0,0,1-6.28-6.28V115.76a6.28,6.28,0,0,1,6.28-6.28h.79a6.28,6.28,0,0,1,6.28,6.28v6.92Q243.68,107.48,262.72,107.48ZM261,175.33a26.14,26.14,0,0,0,19.34-7.91,28.38,28.38,0,0,0,0-39.14,27.8,27.8,0,0,0-38.84,0,28.38,28.38,0,0,0,0,39.14A26.32,26.32,0,0,0,261,175.33Z"/><path class="cls-1" d="M387.35,109.48h.79a6.28,6.28,0,0,1,6.28,6.28v64.19a6.28,6.28,0,0,1-6.28,6.28h-.79a6.28,6.28,0,0,1-6.28-6.28V173q-10,15.2-29,15.2a36.83,36.83,0,0,1-27.48-11.74q-11.36-11.74-11.36-28.63t11.36-28.63a36.83,36.83,0,0,1,27.48-11.74q19,0,29,15.2v-6.92A6.28,6.28,0,0,1,387.35,109.48Zm-33.61,65.85a26.33,26.33,0,0,0,19.5-7.91,28.38,28.38,0,0,0,0-39.14,27.8,27.8,0,0,0-38.84,0,28.38,28.38,0,0,0,0,39.14A26.14,26.14,0,0,0,353.75,175.33Z"/><path class="cls-1" d="M472.57,109.48h.82a6.28,6.28,0,0,1,5.86,8.53l-28,73q-4.92,13-13.74,19.88a28.55,28.55,0,0,1-13.27,5.78,6.24,6.24,0,0,1-7.06-6.24h0a6.35,6.35,0,0,1,5.26-6.18q10.1-2,15.38-15.42l1.46-2.88-29.61-67.65a6.28,6.28,0,0,1,5.75-8.8h.55a6.28,6.28,0,0,1,5.76,3.78l23.95,55.06,21.06-54.81A6.28,6.28,0,0,1,472.57,109.48Z"/><path class="cls-1" d="M560.5,78.78h.79a6.28,6.28,0,0,1,6.28,6.28v94.89a6.28,6.28,0,0,1-6.28,6.28h-.79a6.28,6.28,0,0,1-6.28-6.28V173q-10,15.2-29,15.2a36.83,36.83,0,0,1-27.48-11.74q-11.36-11.74-11.36-28.63t11.36-28.63a36.83,36.83,0,0,1,27.48-11.74q19,0,29,15.2V85.06A6.28,6.28,0,0,1,560.5,78.78ZM526.9,175.33a26.33,26.33,0,0,0,19.5-7.91,28.38,28.38,0,0,0,0-39.14,27.8,27.8,0,0,0-38.84,0,28.38,28.38,0,0,0,0,39.14A26.14,26.14,0,0,0,526.9,175.33Z"/><path class="cls-1" d="M657.67,109.48h.79a6.28,6.28,0,0,1,6.28,6.28v64.19a6.28,6.28,0,0,1-6.28,6.28h-.79a6.28,6.28,0,0,1-6.28-6.28V173q-10,15.2-29,15.2a36.83,36.83,0,0,1-27.48-11.74q-11.36-11.74-11.36-28.63t11.36-28.63a36.83,36.83,0,0,1,27.48-11.74q19,0,29,15.2v-6.92A6.28,6.28,0,0,1,657.67,109.48Zm-33.61,65.85a26.33,26.33,0,0,0,19.5-7.91,28.38,28.38,0,0,0,0-39.14,27.8,27.8,0,0,0-38.84,0,28.38,28.38,0,0,0,0,39.14A26.14,26.14,0,0,0,624.07,175.33Z"/><path class="cls-1" d="M742.89,109.48h.82a6.28,6.28,0,0,1,5.86,8.53l-28,73q-4.92,13-13.74,19.88a28.55,28.55,0,0,1-13.27,5.78,6.24,6.24,0,0,1-7.06-6.24h0a6.35,6.35,0,0,1,5.26-6.18q10.1-2,15.38-15.42l1.46-2.88L680,118.28a6.28,6.28,0,0,1,5.75-8.8h.55a6.28,6.28,0,0,1,5.76,3.78L716,168.32,737,113.51A6.28,6.28,0,0,1,742.89,109.48Z"/><path class="cls-2" d="M530.2,205.72l-.57,3.18a.79.79,0,0,1-.78.65h-9.43l-.92,5.33h6.6a.79.79,0,0,1,.78.94l-.55,3a.79.79,0,0,1-.78.65h-6.9L516,228.92a.79.79,0,0,1-.78.66h-4.43a.79.79,0,0,1-.78-.93l4.1-23.2a.79.79,0,0,1,.78-.66h14.52A.79.79,0,0,1,530.2,205.72Z"/><path class="cls-2" d="M546.08,225.2h-9.25l-2,3.95a.79.79,0,0,1-.71.43h-4.51a.79.79,0,0,1-.7-1.17l12.49-23.2a.79.79,0,0,1,.7-.42h5.86a.79.79,0,0,1,.78.65l4.3,23.2a.79.79,0,0,1-.78.94h-4.76a.79.79,0,0,1-.78-.67Zm-.71-4.59-1.45-9.18-4.73,9.18Z"/><path class="cls-2" d="M578.11,229.57h-4.87a.79.79,0,0,1-.71-.45l-7.16-14.84-2.6,14.63a.79.79,0,0,1-.78.65h-4.43a.79.79,0,0,1-.78-.93l4.1-23.2a.79.79,0,0,1,.78-.66h4.87a.79.79,0,0,1,.72.45l7.16,14.91,2.6-14.7a.79.79,0,0,1,.78-.66h4.43a.79.79,0,0,1,.78.93l-4.1,23.2A.79.79,0,0,1,578.11,229.57Z"/><path class="cls-2" d="M605.91,205.71l-.54,3.18a.79.79,0,0,1-.78.66h-5.93l-3.42,19.37a.79.79,0,0,1-.78.66H590a.79.79,0,0,1-.78-.93l3.37-19.09H587a.79.79,0,0,1-.78-.93l.57-3.18a.79.79,0,0,1,.78-.65h17.57A.79.79,0,0,1,605.91,205.71Z"/><path class="cls-2" d="M621.64,225.2h-9.25l-2,3.95a.79.79,0,0,1-.71.43h-4.51a.79.79,0,0,1-.7-1.17l12.49-23.2a.79.79,0,0,1,.7-.42h5.86a.79.79,0,0,1,.78.65l4.3,23.2a.79.79,0,0,1-.78.94H623a.79.79,0,0,1-.78-.67Zm-.71-4.59-1.45-9.18-4.73,9.18Z"/><path class="cls-2" d="M635.46,228.07a5.68,5.68,0,0,1-2.52-5c0-.21,0-.65,0-.65a.34.34,0,0,1,.33-.3H639a.33.33,0,0,1,.33.3,3.84,3.84,0,0,0,.61,1.82,3,3,0,0,0,2.26.78,3.52,3.52,0,0,0,2.17-.6,2,2,0,0,0,.79-1.69,2.15,2.15,0,0,0-1-1.84,17.25,17.25,0,0,0-3.13-1.59,26.93,26.93,0,0,1-3.34-1.61,7.44,7.44,0,0,1-2.24-2.06,5.43,5.43,0,0,1-1-3.29,7.12,7.12,0,0,1,1.2-4.24,7.84,7.84,0,0,1,3.42-2.75,12.46,12.46,0,0,1,5-1,12,12,0,0,1,4.52.8,6.85,6.85,0,0,1,3.07,2.29,5.87,5.87,0,0,1,1.1,3.55c0,.35,0,.48,0,.48a.33.33,0,0,1-.33.3h-5.83c-.16,0-.28-.11-.27-.24v-.19a2.06,2.06,0,0,0-.69-1.61,2.73,2.73,0,0,0-1.89-.62,3.27,3.27,0,0,0-2.06.62,2,2,0,0,0-.8,1.68,2.15,2.15,0,0,0,1,1.78A18.47,18.47,0,0,0,645,215a32.34,32.34,0,0,1,3.41,1.77,7.64,7.64,0,0,1,2.28,2.17,5.67,5.67,0,0,1,1,3.34,6.84,6.84,0,0,1-1.16,3.92,7.65,7.65,0,0,1-3.35,2.7,12.52,12.52,0,0,1-5.12,1A11.28,11.28,0,0,1,635.46,228.07Z"/><path class="cls-2" d="M679.6,206,669,221.38l-1.37,7.54a.79.79,0,0,1-.78.65h-4.43a.79.79,0,0,1-.78-.93l1.31-7.26-5.33-15.54a.79.79,0,0,1,.75-1.05h5.14a.79.79,0,0,1,.76.57l2.8,9.77,6.37-10a.79.79,0,0,1,.67-.37H679A.79.79,0,0,1,679.6,206Z"/><path class="cls-3" d="M95.3,68.86a1,1,0,0,0,.6.66c2.19.83,12,4.17,29.1,4.17s26.92-3.34,29.1-4.17a1,1,0,0,0,.6-.66l10.75-38.6a2,2,0,0,0-3-2.18l-16.22,11a1.19,1.19,0,0,0-.14,1.86,7,7,0,1,1-8.12-1.11,1.17,1.17,0,0,0,.39-1.69L126.66,20.5a2,2,0,0,0-3.31,0L111.67,38.14a1.17,1.17,0,0,0,.39,1.69,7.05,7.05,0,1,1-8.12,1.11,1.19,1.19,0,0,0-.14-1.86l-16.22-11a2,2,0,0,0-3,2.18Z"/><path class="cls-4" d="M152.84,201.79a1,1,0,0,0-.93-.71,17.57,17.57,0,0,1-16.59-14.52c-3-13.72.58-31.33,4.59-44.6,6.42-21.26,17-41.12,32.79-56.83a1,1,0,0,0-.15-1.52c-4.41-2.92-8.54-5.91-12.34-8.88a1,1,0,0,0-.86-.17c-3.29.9-19,5-34.36,5s-31.06-4.07-34.36-5a1,1,0,0,0-.86.17c-3.8,3-7.93,6-12.34,8.88a1,1,0,0,0-.15,1.52c15.83,15.72,26.37,35.57,32.79,56.83,4,13.27,7.55,30.88,4.59,44.6a17.57,17.57,0,0,1-16.59,14.52,1,1,0,0,0-.93.71L89.5,228.74a1,1,0,0,0,1,1.26h69.09a1,1,0,0,0,1-1.26ZM125,120.55c-7.23,0-8.78-5.84-8.78-10.69s1.88-10.2,8.78-10.2,8.78,5.35,8.78,10.2S132.23,120.55,125,120.55Z"/><path class="cls-5" d="M199.87,98.83a199.74,199.74,0,0,1-21.12-11.35l-.54-.34a.22.22,0,0,0-.28,0A135.92,135.92,0,0,0,151.82,129a227.29,227.29,0,0,0-8.21,25.86c-2.34,8.93-4.18,18.08-4.25,27.34a.22.22,0,0,0,.22.23,1,1,0,0,0,1-.74,259,259,0,0,1,9.12-26c4-10.08,7.91-20.21,12.89-29.88a162.45,162.45,0,0,1,18.36-28l9.19,4.37L180.79,121l-7.51,1.23a4.3,4.3,0,0,0-3.57,4.86.22.22,0,0,0,.25.19l13.82-2a.22.22,0,0,0,.16-.1l16-26A.22.22,0,0,0,199.87,98.83Z"/><path class="cls-6" d="M87.44,125.85c5,9.67,8.85,19.8,12.89,29.88a259,259,0,0,1,9.12,26,1,1,0,0,0,1,.74.22.22,0,0,0,.22-.23c-.08-9.26-1.91-18.42-4.25-27.34A227.3,227.3,0,0,0,98.18,129a135.92,135.92,0,0,0-26.1-41.86.22.22,0,0,0-.28,0l-.54.34A199.71,199.71,0,0,1,50.13,98.83a.22.22,0,0,0-.1.32l16,26a.22.22,0,0,0,.16.1l13.82,2a.22.22,0,0,0,.25-.19,4.3,4.3,0,0,0-3.57-4.86L69.21,121l-9.33-18.77,9.19-4.37A162.45,162.45,0,0,1,87.44,125.85Z"/></svg>